<svg version="1.1" id="Layer_1" xmlns="http://www.w3.org/2000/svg" xmlns:xlink="http://www.w3.org/1999/xlink" x="0px" y="0px"
	 width="100%" viewBox="0 0 1000 1000" enable-background="new 0 0 1000 1000" xml:space="preserve">
<path fill="#FFE66F" opacity="1.000000" stroke="none" 
	d="
M242.000000,1001.000000 
	C161.676407,1001.000000 81.352821,1001.000000 1.021924,1001.000000 
	C1.014616,667.716858 1.014616,334.433685 1.014616,1.075264 
	C334.242706,1.075264 667.485413,1.075264 1000.864075,1.075264 
	C1000.864075,334.333282 1000.864075,667.666626 1000.864075,1001.000000 
	C926.568604,1001.000000 852.244019,1001.000000 777.563538,1000.559326 
	C776.444336,994.002258 775.764648,987.874023 774.903015,981.771423 
	C771.481873,957.540955 770.245544,932.886353 762.661072,909.427551 
	C756.782593,891.245300 749.855896,873.401855 743.221985,854.925781 
	C743.982971,854.565674 745.582825,853.770203 747.213074,853.042786 
	C797.448425,830.627869 836.188843,795.597534 862.597900,747.271057 
	C887.583496,701.549438 896.594604,652.550049 890.651245,600.951538 
	C886.843750,567.896179 877.727051,536.308777 860.652344,507.419983 
	C837.564941,468.358337 802.853333,444.158630 760.566711,429.929260 
	C755.825684,428.333862 754.356873,426.123077 753.968994,421.238098 
	C751.983826,396.232452 746.166199,372.213654 733.171997,350.443573 
	C723.062561,333.506470 709.783142,320.027802 690.114746,314.593811 
	C683.242371,312.695099 676.140137,311.364471 669.053650,310.551117 
	C641.825989,307.425995 616.124023,311.465698 593.725098,328.488373 
	C572.162903,344.875153 560.567627,367.563904 553.948608,393.210510 
	C552.757996,397.823669 551.814636,402.500641 550.809326,406.918640 
	C542.482910,406.918640 534.693909,406.918640 526.725525,406.918640 
	C526.547729,405.460999 526.307556,404.332245 526.286621,403.199432 
	C525.413086,355.881500 524.597107,308.562408 523.625671,261.246490 
	C523.553467,257.729065 524.976562,256.739319 528.048767,256.149597 
	C541.154968,253.633896 553.212036,248.418839 564.183044,240.903107 
	C581.521301,229.025497 594.112244,213.553040 599.348145,192.780609 
	C601.247437,185.245224 599.495239,181.581223 592.440918,178.409012 
	C590.627563,177.593582 588.720642,176.751770 586.779968,176.489532 
	C560.843140,172.984756 536.150452,174.846954 515.441895,193.433228 
	C514.312500,194.446899 513.048157,195.310196 511.518524,196.498306 
	C510.719940,192.726151 510.320038,189.732986 509.448120,186.884293 
	C496.082642,143.216354 464.577637,118.588898 422.832458,105.037788 
	C415.840393,102.768074 409.289978,108.803276 410.033142,116.118111 
	C412.193939,137.386749 415.781189,158.409317 422.923859,178.633820 
	C432.847198,206.731735 448.470642,230.219391 476.482941,243.488403 
	C477.707153,244.068314 478.838959,246.259415 478.873474,247.726791 
	C479.636444,280.210083 480.922394,312.703705 480.614136,345.181122 
	C480.429718,364.608154 477.751190,384.015503 476.012909,403.415497 
	C475.887512,404.815186 474.328033,407.193848 473.356415,407.234558 
	C465.756561,407.553009 458.137421,407.410919 450.296143,407.410919 
	C450.134613,406.546661 449.943939,405.590118 449.778076,404.629333 
	C447.012421,388.610413 442.419556,373.158325 434.931763,358.690430 
	C422.504059,334.677643 404.827820,317.294586 376.693909,313.435394 
	C371.910706,312.779266 367.143860,311.925110 362.339386,311.514862 
	C320.531342,307.945038 284.427124,324.447601 263.916809,363.188904 
	C254.158249,381.621552 249.090393,401.356445 247.257416,421.894592 
	C246.681107,428.352020 244.388229,431.045715 238.457108,433.410187 
	C186.285034,454.208801 149.259766,490.743073 127.831543,542.622559 
	C106.074547,595.298096 104.337761,649.299561 120.367966,703.640869 
	C135.019501,753.308594 163.013931,793.607361 207.596252,821.401489 
	C229.862305,835.282837 253.234558,846.897156 277.685608,856.376404 
	C279.439636,857.056396 281.156189,857.833130 283.413635,858.785767 
	C274.188995,869.226379 270.259430,881.274231 267.161346,893.598206 
	C261.926788,914.420837 256.899872,935.297424 251.987396,956.198730 
	C248.486938,971.092224 245.317276,986.063477 242.000000,1001.000000 
z"/>
<path fill="#322B8B" opacity="1.000000" stroke="none" 
	d="
M242.467621,1001.000000 
	C245.317276,986.063477 248.486938,971.092224 251.987396,956.198730 
	C256.899872,935.297424 261.926788,914.420837 267.161346,893.598206 
	C270.259430,881.274231 274.188995,869.226379 283.413635,858.785767 
	C281.156189,857.833130 279.439636,857.056396 277.685608,856.376404 
	C253.234558,846.897156 229.862305,835.282837 207.596252,821.401489 
	C163.013931,793.607361 135.019501,753.308594 120.367966,703.640869 
	C104.337761,649.299561 106.074547,595.298096 127.831543,542.622559 
	C149.259766,490.743073 186.285034,454.208801 238.457108,433.410187 
	C244.388229,431.045715 246.681107,428.352020 247.257416,421.894592 
	C249.090393,401.356445 254.158249,381.621552 263.916809,363.188904 
	C284.427124,324.447601 320.531342,307.945038 362.339386,311.514862 
	C367.143860,311.925110 371.910706,312.779266 376.693909,313.435394 
	C404.827820,317.294586 422.504059,334.677643 434.931763,358.690430 
	C442.419556,373.158325 447.012421,388.610413 449.778076,404.629333 
	C449.943939,405.590118 450.134613,406.546661 450.296143,407.410919 
	C458.137421,407.410919 465.756561,407.553009 473.356415,407.234558 
	C474.328033,407.193848 475.887512,404.815186 476.012909,403.415497 
	C477.751190,384.015503 480.429718,364.608154 480.614136,345.181122 
	C480.922394,312.703705 479.636444,280.210083 478.873474,247.726791 
	C478.838959,246.259415 477.707153,244.068314 476.482941,243.488403 
	C448.470642,230.219391 432.847198,206.731735 422.923859,178.633820 
	C415.781189,158.409317 412.193939,137.386749 410.033142,116.118111 
	C409.289978,108.803276 415.840393,102.768074 422.832458,105.037788 
	C464.577637,118.588898 496.082642,143.216354 509.448120,186.884293 
	C510.320038,189.732986 510.719940,192.726151 511.518524,196.498306 
	C513.048157,195.310196 514.312500,194.446899 515.441895,193.433228 
	C536.150452,174.846954 560.843140,172.984756 586.779968,176.489532 
	C588.720642,176.751770 590.627563,177.593582 592.440918,178.409012 
	C599.495239,181.581223 601.247437,185.245224 599.348145,192.780609 
	C594.112244,213.553040 581.521301,229.025497 564.183044,240.903107 
	C553.212036,248.418839 541.154968,253.633896 528.048767,256.149597 
	C524.976562,256.739319 523.553467,257.729065 523.625671,261.246490 
	C524.597107,308.562408 525.413086,355.881500 526.286621,403.199432 
	C526.307556,404.332245 526.547729,405.460999 526.725525,406.918640 
	C534.693909,406.918640 542.482910,406.918640 550.809326,406.918640 
	C551.814636,402.500641 552.757996,397.823669 553.948608,393.210510 
	C560.567627,367.563904 572.162903,344.875153 593.725098,328.488373 
	C616.124023,311.465698 641.825989,307.425995 669.053650,310.551117 
	C676.140137,311.364471 683.242371,312.695099 690.114746,314.593811 
	C709.783142,320.027802 723.062561,333.506470 733.171997,350.443573 
	C746.166199,372.213654 751.983826,396.232452 753.968994,421.238098 
	C754.356873,426.123077 755.825684,428.333862 760.566711,429.929260 
	C802.853333,444.158630 837.564941,468.358337 860.652344,507.419983 
	C877.727051,536.308777 886.843750,567.896179 890.651245,600.951538 
	C896.594604,652.550049 887.583496,701.549438 862.597900,747.271057 
	C836.188843,795.597534 797.448425,830.627869 747.213074,853.042786 
	C745.582825,853.770203 743.982971,854.565674 743.221985,854.925781 
	C749.855896,873.401855 756.782593,891.245300 762.661072,909.427551 
	C770.245544,932.886353 771.481873,957.540955 774.903015,981.771423 
	C775.764648,987.874023 776.444336,994.002258 777.103821,1000.559326 
	C771.977905,1001.000000 766.955811,1001.000000 761.478638,1000.571655 
	C760.349304,994.703796 759.744202,989.254517 758.988831,983.826233 
	C755.671814,959.989319 754.403320,935.754517 746.865967,912.698181 
	C741.915894,897.555969 735.958374,882.738403 730.227295,867.862000 
	C729.496155,865.964294 727.604065,863.535156 725.898804,863.213684 
	C723.125793,862.690735 720.062866,863.705444 716.712463,864.053711 
	C693.416931,868.285461 670.526550,872.509888 647.655090,876.834778 
	C645.971558,877.153137 643.768860,877.741333 642.915100,878.972290 
	C633.053406,893.190186 623.405579,907.556396 613.443726,922.086060 
	C611.738159,924.268921 610.277161,926.239807 608.844177,928.230835 
	C605.162231,933.346863 601.773560,934.127808 596.200195,931.165466 
	C594.183899,930.093811 592.132568,929.088074 589.918823,927.753601 
	C582.531738,922.997864 574.785522,919.203003 568.258789,913.905640 
	C561.117493,908.109497 555.115906,909.512451 548.830811,914.328552 
	C547.564148,915.299133 546.279663,917.161865 546.234131,918.651001 
	C546.046326,924.789246 546.332520,930.941956 546.365051,937.545044 
	C546.251343,940.480896 546.195312,942.961060 546.186279,945.441345 
	C546.118958,963.960876 546.060913,982.480469 546.000000,1001.000000 
	C540.977905,1001.000000 535.955811,1001.000000 530.619934,1000.552612 
	C530.306152,990.873169 530.306152,981.641052 530.306152,971.631348 
	C505.009674,985.524963 480.034790,989.209167 453.000000,974.390991 
	C453.000000,984.070557 453.000000,992.535278 453.000000,1001.000000 
	C447.977905,1001.000000 442.955811,1001.000000 437.468475,1000.531921 
	C437.635132,980.399292 438.267029,960.734802 438.973480,940.621155 
	C439.386108,931.564087 439.780182,922.957581 440.003662,914.346619 
	C440.038483,913.005676 439.688843,911.254028 438.822723,910.381042 
	C437.398529,908.945557 425.336456,909.868286 423.614471,911.307739 
	C413.576141,919.698975 403.573181,928.132568 393.212341,936.643066 
	C388.527710,938.655762 385.095520,936.870056 381.905640,933.677185 
	C375.309204,916.260254 368.831787,899.177795 361.971130,882.250610 
	C361.253479,880.479980 358.432404,879.000977 356.310852,878.449036 
	C339.603821,874.103027 322.842194,869.963074 306.057007,865.927551 
	C304.317505,865.509338 302.059479,865.665833 300.477020,866.442261 
	C292.355499,870.426819 289.034180,878.053101 286.121948,886.372986 
	C281.180084,904.672119 275.974060,922.521912 271.730072,940.597656 
	C267.028107,960.624084 263.205536,980.856995 259.000000,1001.000000 
	C253.645065,1001.000000 248.290146,1001.000000 242.467621,1001.000000 
M520.184265,931.989136 
	C527.426880,927.693176 532.686646,922.505432 529.324951,913.014893 
	C528.870605,911.732117 529.502808,910.065186 529.629089,908.575928 
	C530.169189,902.208008 530.708252,895.839966 531.215210,889.855469 
	C505.042206,889.855469 479.706940,889.855469 455.070770,889.855469 
	C455.356415,901.779480 455.555115,912.885803 455.969543,923.984009 
	C456.024231,925.448303 456.786194,927.583801 457.891235,928.194214 
	C463.645935,931.372925 469.617676,934.158630 476.152069,937.582031 
	C491.408142,941.982910 505.979736,940.996277 520.184265,931.989136 
M154.576294,741.336182 
	C154.576294,741.336182 154.575577,741.456726 154.688141,742.126038 
	C171.624786,773.604370 196.898911,796.505127 227.629242,814.140320 
	C273.547119,840.491211 322.984619,856.447571 374.954010,865.101929 
	C429.955963,874.261169 485.334198,875.043945 540.829468,871.653503 
	C583.397095,869.052795 625.630371,863.490295 667.800964,857.159363 
	C700.379272,852.268555 731.738647,844.140442 760.560242,827.792114 
	C776.088379,818.984009 790.838867,809.043030 803.968628,795.888550 
	C850.270630,752.358643 873.056519,698.404968 875.886414,634.210999 
	C850.193848,650.632202 823.452637,656.057068 794.792419,648.811890 
	C766.081055,641.553711 744.700012,624.515808 730.886353,598.362183 
	C719.196838,576.230652 716.371277,552.706177 722.640625,528.513000 
	C731.352478,494.894440 752.826111,472.191345 785.428223,458.789948 
	C783.208679,457.574158 781.853638,456.626953 780.356689,456.044464 
	C768.733276,451.521179 757.153381,446.869232 745.406616,442.687897 
	C740.453552,440.924805 738.060608,438.114105 737.987305,432.868530 
	C737.917603,427.881439 737.619141,422.873474 737.026489,417.921906 
	C734.305786,395.192902 728.765320,373.350647 715.735535,354.074921 
	C706.580750,340.531860 694.505188,331.169373 677.847839,328.801941 
	C671.587524,327.912231 665.332520,326.652222 659.039673,326.379639 
	C625.838684,324.941467 599.614685,337.039703 582.413391,366.420166 
	C573.934204,380.902893 569.513000,396.693237 566.942505,413.093140 
	C565.419189,422.811523 563.983826,424.021271 554.008118,424.085083 
	C518.521790,424.312134 483.035828,424.610748 447.550354,424.948212 
	C437.130585,425.047272 435.658264,423.805023 434.176147,413.346710 
	C431.752380,396.244354 427.259613,379.799774 419.094360,364.423920 
	C408.677216,344.807526 393.745270,331.623810 370.818085,329.301849 
	C368.498901,329.066986 366.191589,328.713531 363.879822,328.407074 
	C326.247162,323.418549 296.054199,338.524902 278.208466,371.955688 
	C267.822937,391.411102 263.796478,412.647400 262.934296,434.528778 
	C262.668396,441.276062 261.050507,442.635132 254.831268,445.290436 
	C241.236252,451.094757 227.920898,457.555939 214.523956,463.818665 
	C213.417038,464.336121 212.557709,465.383148 211.458984,466.286346 
	C262.850311,495.479034 272.406342,552.432434 256.617157,591.043457 
	C248.347580,611.265991 235.110489,627.448181 216.393250,638.745117 
	C188.250275,655.731262 158.489502,657.874939 127.268631,646.580261 
	C127.268631,648.321655 127.138840,649.312012 127.288261,650.258301 
	C129.260895,662.751099 130.714874,675.359375 133.405914,687.697266 
	C137.431900,706.155579 144.066467,723.746948 153.864182,740.638977 
	C154.141647,740.868530 154.419098,741.098145 154.576294,741.336182 
M874.231689,604.228577 
	C871.130066,576.853149 864.170532,550.537415 851.821533,525.850769 
	C841.544006,505.305206 827.389282,487.799866 809.150269,473.659058 
	C806.104004,471.297241 803.287842,470.646027 799.506592,471.559113 
	C766.629944,479.498138 741.966064,506.364105 736.535828,540.405945 
	C731.366333,572.812805 747.101929,606.334290 775.622803,623.672913 
	C804.566162,641.268250 840.934570,639.525574 868.411438,619.659729 
	C873.817810,615.750916 876.444153,611.634766 874.231689,604.228577 
M245.775482,536.907715 
	C240.005844,511.737823 225.757629,492.970215 203.106476,480.623535 
	C196.097214,476.802887 195.996719,476.877594 189.896088,482.312073 
	C186.913666,484.968842 183.983337,487.703369 181.225540,490.590088 
	C146.221619,527.230530 130.179321,571.714722 126.822990,621.552856 
	C126.440742,627.228882 128.238937,629.832214 133.481995,631.673218 
	C163.658401,642.269226 191.900711,638.966919 216.799072,618.641785 
	C242.358734,597.776855 251.310913,570.150391 245.775482,536.907715 
M470.323151,221.189026 
	C476.109955,224.460709 481.677216,228.242920 487.748291,230.853592 
	C493.283020,233.233627 494.875641,236.842133 494.972992,242.483276 
	C495.358063,264.798492 496.182983,287.105652 496.681030,309.419464 
	C497.339447,338.916473 496.997223,368.382416 493.152252,397.704346 
	C492.747711,400.789673 492.416260,403.884583 492.024200,407.200745 
	C498.265320,407.200745 503.994232,407.200745 510.150208,407.200745 
	C510.150208,404.490509 510.184601,402.185822 510.145142,399.882416 
	C509.343292,353.081940 508.454742,306.282776 507.776428,259.480530 
	C507.594543,246.928986 504.191559,243.888855 522.904114,240.654221 
	C548.474487,236.234161 568.541565,222.737686 580.424927,198.794693 
	C581.411377,196.807220 581.949280,194.597183 583.181946,191.117828 
	C576.537231,191.117828 570.945923,191.005646 565.360413,191.138794 
	C548.360107,191.544052 533.113037,196.364182 521.729980,209.742081 
	C517.878174,214.268921 514.764893,219.446671 511.518433,224.459290 
	C508.624115,228.928146 505.233917,229.934448 500.497803,227.627914 
	C495.489685,225.188919 494.251892,221.329956 495.118927,216.071869 
	C497.447968,201.947327 494.958679,188.504913 488.404053,175.876617 
	C475.436890,150.893738 454.631439,134.738388 429.205017,123.905434 
	C428.705627,123.692657 428.036285,123.878746 427.124329,123.878746 
	C429.914917,145.561371 434.115601,166.536972 443.234589,186.252502 
	C449.474548,199.743546 457.765930,211.680222 470.323151,221.189026 
M610.002075,881.704590 
	C591.304016,883.502258 572.611206,885.356812 553.905273,887.068115 
	C546.901917,887.708801 546.119202,888.665710 547.804260,896.294861 
	C548.737793,895.906189 549.755981,895.709167 550.487427,895.142334 
	C556.948730,890.134094 562.773438,891.652710 569.138306,895.893921 
	C578.765991,902.309204 588.876343,907.999878 599.078247,914.178101 
	C606.822449,902.923218 614.290894,892.069153 622.457703,880.200134 
	C617.723450,880.766052 614.304321,881.174805 610.002075,881.704590 
M428.531525,893.622009 
	C431.605499,893.622009 434.679504,893.622009 437.688354,893.622009 
	C438.537384,889.358398 436.735077,888.370911 433.200287,888.065247 
	C418.640839,886.806396 404.105865,885.262634 389.564575,883.796997 
	C386.516968,883.489868 383.480743,883.069763 379.612213,882.601624 
	C382.041992,888.864746 384.101196,894.258789 386.226471,899.626648 
	C388.337097,904.957520 390.514282,910.262024 392.862885,916.074646 
	C400.640503,909.633240 407.918213,903.869385 414.873688,897.739868 
	C418.640839,894.420105 422.622223,892.764587 428.531525,893.622009 
M486.054138,955.699829 
	C475.768188,953.073669 465.482269,950.447510 455.122162,947.802490 
	C454.377441,951.168030 454.395447,954.968750 458.345154,957.690491 
	C460.665863,959.289734 462.844482,961.123352 465.269806,962.538147 
	C484.905975,973.993164 513.020691,966.538818 528.734924,952.395874 
	C530.187805,951.088318 530.120544,948.091675 530.759094,945.879333 
	C530.268982,945.645630 529.778931,945.411926 529.288818,945.178223 
	C516.336792,953.505920 502.158630,956.767212 486.054138,955.699829 
z"/>
<path fill="#56B9DA" opacity="1.000000" stroke="none" 
	d="
M717.122192,864.071167 
	C720.062866,863.705444 723.125793,862.690735 725.898804,863.213684 
	C727.604065,863.535156 729.496155,865.964294 730.227295,867.862000 
	C735.958374,882.738403 741.915894,897.555969 746.865967,912.698181 
	C754.403320,935.754517 755.671814,959.989319 758.988831,983.826233 
	C759.744202,989.254517 760.349304,994.703796 761.011780,1000.571655 
	C737.645752,1001.000000 714.291565,1001.000000 690.547913,1000.572449 
	C684.738037,969.086731 679.330505,938.026245 673.882141,906.972961 
	C673.132385,902.699890 670.125854,900.963867 666.206726,900.276123 
	C679.323669,891.456787 692.434021,883.074951 705.287598,874.316223 
	C709.570679,871.397522 713.196106,867.513733 717.122192,864.071167 
z"/>
<path fill="#56BADB" opacity="1.000000" stroke="none" 
	d="
M438.898895,941.070251 
	C438.267029,960.734802 437.635132,980.399292 437.001617,1000.531921 
	C405.312439,1001.000000 373.624878,1001.000000 341.481140,1000.531433 
	C340.666992,976.461304 340.280762,952.860046 339.971954,929.257874 
	C339.899445,923.715332 340.375183,923.635498 345.713593,925.027893 
	C357.747009,928.166321 369.843781,931.061829 381.914764,934.056213 
	C385.095520,936.870056 388.527710,938.655762 393.686890,936.756958 
	C409.304535,938.209839 424.101715,939.640076 438.898895,941.070251 
z"/>
<path fill="#55B9DA" opacity="1.000000" stroke="none" 
	d="
M546.466858,1001.000000 
	C546.060913,982.480469 546.118958,963.960876 546.186279,945.441345 
	C546.195312,942.961060 546.251343,940.480896 546.722534,937.431885 
	C555.503296,935.570679 563.898926,934.539429 572.173706,932.898926 
	C578.230469,931.698181 584.128418,929.696838 590.097168,928.052307 
	C592.132568,929.088074 594.183899,930.093811 596.200195,931.165466 
	C601.773560,934.127808 605.162231,933.346863 608.844177,928.230835 
	C610.277161,926.239807 611.738159,924.268921 613.858032,922.112244 
	C623.013123,918.792053 631.522888,915.717163 639.971375,912.482361 
	C646.242004,910.081360 652.433044,907.472473 658.562744,905.348022 
	C658.235413,906.790710 658.004822,907.841614 657.433960,909.028442 
	C656.411987,912.139221 655.217773,915.100891 655.141174,918.091187 
	C654.874268,928.504883 655.104492,938.930542 654.918396,949.347595 
	C654.833374,954.106750 654.217834,958.856567 653.589966,963.339722 
	C650.517151,961.684265 647.694824,959.098145 644.877686,959.103699 
	C620.748596,959.151367 596.620361,959.663452 572.492065,960.048767 
	C567.448242,960.129395 564.066833,962.477844 563.721985,967.671326 
	C562.985046,978.770081 562.555481,989.889221 562.000000,1001.000000 
	C556.977905,1001.000000 551.955811,1001.000000 546.466858,1001.000000 
z"/>
<path fill="#2A9CC7" opacity="1.000000" stroke="none" 
	d="
M381.905640,933.677185 
	C369.843781,931.061829 357.747009,928.166321 345.713593,925.027893 
	C340.375183,923.635498 339.899445,923.715332 339.971954,929.257874 
	C340.280762,952.860046 340.666992,976.461304 341.012451,1000.531433 
	C336.643097,1001.000000 332.286194,1001.000000 327.440247,1000.531860 
	C326.943726,970.342285 326.917511,940.620972 326.950439,910.899597 
	C326.955048,906.750244 326.749817,902.763977 322.311798,900.788269 
	C317.766907,898.764954 314.315765,900.843689 310.933319,903.952026 
	C309.354156,903.014526 308.066315,902.261475 306.875214,901.377930 
	C299.998199,896.276733 293.143982,891.144836 286.282074,886.023315 
	C289.034180,878.053101 292.355499,870.426819 300.477020,866.442261 
	C302.059479,865.665833 304.317505,865.509338 306.057007,865.927551 
	C322.842194,869.963074 339.603821,874.103027 356.310852,878.449036 
	C358.432404,879.000977 361.253479,880.479980 361.971130,882.250610 
	C368.831787,899.177795 375.309204,916.260254 381.905640,933.677185 
z"/>
<path fill="#55B8DA" opacity="1.000000" stroke="none" 
	d="
M286.121948,886.372986 
	C293.143982,891.144836 299.998199,896.276733 306.875214,901.377930 
	C308.066315,902.261475 309.354156,903.014526 310.880524,904.411987 
	C311.109131,936.997498 311.054565,968.998718 311.000000,1001.000000 
	C293.979095,1001.000000 276.958221,1001.000000 259.468658,1001.000000 
	C263.205536,980.856995 267.028107,960.624084 271.730072,940.597656 
	C275.974060,922.521912 281.180084,904.672119 286.121948,886.372986 
z"/>
<path fill="#55B9DA" opacity="1.000000" stroke="none" 
	d="
M654.000000,1001.000000 
	C628.979126,1001.000000 603.958191,1001.000000 578.442383,1000.531982 
	C578.014893,993.901550 578.162048,987.738647 578.121643,981.577026 
	C578.094910,977.500916 579.512146,975.866577 583.984253,975.847656 
	C603.802673,975.764038 623.618530,975.191956 643.437256,974.979187 
	C647.740234,974.932983 651.313171,973.979553 653.874878,970.835266 
	C653.950012,981.246521 653.975037,991.123291 654.000000,1001.000000 
z"/>
<path fill="#302B8D" opacity="1.000000" stroke="none" 
	d="
M653.824646,970.300720 
	C651.313171,973.979553 647.740234,974.932983 643.437256,974.979187 
	C623.618530,975.191956 603.802673,975.764038 583.984253,975.847656 
	C579.512146,975.866577 578.094910,977.500916 578.121643,981.577026 
	C578.162048,987.738647 578.014893,993.901550 577.973755,1000.531982 
	C572.977905,1001.000000 567.955811,1001.000000 562.466858,1001.000000 
	C562.555481,989.889221 562.985046,978.770081 563.721985,967.671326 
	C564.066833,962.477844 567.448242,960.129395 572.492065,960.048767 
	C596.620361,959.663452 620.748596,959.151367 644.877686,959.103699 
	C647.694824,959.098145 650.517151,961.684265 653.580383,963.705872 
	C653.824036,966.328796 653.824341,968.314758 653.824646,970.300720 
z"/>
<path fill="#2F2B8D" opacity="1.000000" stroke="none" 
	d="
M657.774170,908.892578 
	C658.004822,907.841614 658.235413,906.790710 658.783813,905.154541 
	C661.434448,903.235168 663.767212,901.900879 666.099976,900.566650 
	C670.125854,900.963867 673.132385,902.699890 673.882141,906.972961 
	C679.330505,938.026245 684.738037,969.086731 690.079224,1000.572449 
	C684.977905,1001.000000 679.955811,1001.000000 674.459595,1000.583191 
	C673.316833,996.236389 672.675415,992.301636 671.975342,988.377258 
	C667.248535,961.881104 662.509277,935.387207 657.774170,908.892578 
z"/>
<path fill="#2F2A8D" opacity="1.000000" stroke="none" 
	d="
M311.466858,1001.000000 
	C311.054565,968.998718 311.109131,936.997498 311.216522,904.536255 
	C314.315765,900.843689 317.766907,898.764954 322.311798,900.788269 
	C326.749817,902.763977 326.955048,906.750244 326.950439,910.899597 
	C326.917511,940.620972 326.943726,970.342285 326.975586,1000.531860 
	C321.977905,1001.000000 316.955811,1001.000000 311.466858,1001.000000 
z"/>
<path fill="#FCF8CA" opacity="1.000000" stroke="none" 
	d="
M453.468658,1001.000000 
	C453.000000,992.535278 453.000000,984.070557 453.000000,974.390991 
	C480.034790,989.209167 505.009674,985.524963 530.306152,971.631348 
	C530.306152,981.641052 530.306152,990.873169 530.153076,1000.552612 
	C504.645782,1001.000000 479.291534,1001.000000 453.468658,1001.000000 
z"/>
<path fill="#2B9BC6" opacity="1.000000" stroke="none" 
	d="
M657.433960,909.028442 
	C662.509277,935.387207 667.248535,961.881104 671.975342,988.377258 
	C672.675415,992.301636 673.316833,996.236389 673.992676,1000.583191 
	C667.645569,1001.000000 661.291199,1001.000000 654.468384,1001.000000 
	C653.975037,991.123291 653.950012,981.246521 653.874878,970.835266 
	C653.824341,968.314758 653.824036,966.328796 653.833313,963.976685 
	C654.217834,958.856567 654.833374,954.106750 654.918396,949.347595 
	C655.104492,938.930542 654.874268,928.504883 655.141174,918.091187 
	C655.217773,915.100891 656.411987,912.139221 657.433960,909.028442 
z"/>
<path fill="#83F878" opacity="1.000000" stroke="none" 
	d="
M153.710968,740.099670 
	C144.066467,723.746948 137.431900,706.155579 133.405914,687.697266 
	C130.714874,675.359375 129.260895,662.751099 127.288261,650.258301 
	C127.138840,649.312012 127.268631,648.321655 127.268631,646.580261 
	C158.489502,657.874939 188.250275,655.731262 216.393250,638.745117 
	C235.110489,627.448181 248.347580,611.265991 256.617157,591.043457 
	C272.406342,552.432434 262.850311,495.479034 211.458984,466.286346 
	C212.557709,465.383148 213.417038,464.336121 214.523956,463.818665 
	C227.920898,457.555939 241.236252,451.094757 254.831268,445.290436 
	C261.050507,442.635132 262.668396,441.276062 262.934296,434.528778 
	C263.796478,412.647400 267.822937,391.411102 278.208466,371.955688 
	C296.054199,338.524902 326.247162,323.418549 363.879822,328.407074 
	C366.191589,328.713531 368.498901,329.066986 370.818085,329.301849 
	C393.745270,331.623810 408.677216,344.807526 419.094360,364.423920 
	C427.259613,379.799774 431.752380,396.244354 434.176147,413.346710 
	C435.658264,423.805023 437.130585,425.047272 447.550354,424.948212 
	C483.035828,424.610748 518.521790,424.312134 554.008118,424.085083 
	C563.983826,424.021271 565.419189,422.811523 566.942505,413.093140 
	C569.513000,396.693237 573.934204,380.902893 582.413391,366.420166 
	C599.614685,337.039703 625.838684,324.941467 659.039673,326.379639 
	C665.332520,326.652222 671.587524,327.912231 677.847839,328.801941 
	C694.505188,331.169373 706.580750,340.531860 715.735535,354.074921 
	C728.765320,373.350647 734.305786,395.192902 737.026489,417.921906 
	C737.619141,422.873474 737.917603,427.881439 737.987305,432.868530 
	C738.060608,438.114105 740.453552,440.924805 745.406616,442.687897 
	C757.153381,446.869232 768.733276,451.521179 780.356689,456.044464 
	C781.853638,456.626953 783.208679,457.574158 785.428223,458.789948 
	C752.826111,472.191345 731.352478,494.894440 722.640625,528.513000 
	C716.371277,552.706177 719.196838,576.230652 730.886353,598.362183 
	C744.700012,624.515808 766.081055,641.553711 794.792419,648.811890 
	C823.452637,656.057068 850.193848,650.632202 875.886414,634.210999 
	C873.056519,698.404968 850.270630,752.358643 803.268799,795.991272 
	C801.146057,796.505310 799.665527,796.779236 798.308716,797.348083 
	C761.486572,812.787231 723.088013,822.932495 684.141541,831.158081 
	C654.085266,837.506042 623.856079,842.828979 593.163208,845.098877 
	C576.622986,846.322144 560.111511,848.359253 543.553406,848.821472 
	C514.799805,849.624207 486.006287,849.376038 457.384003,845.989990 
	C433.836548,843.204346 410.175476,840.829834 386.885590,836.533875 
	C341.831909,828.223389 297.701477,816.333984 255.394196,798.326355 
	C224.180954,785.040710 194.893631,768.382263 167.173615,748.874512 
	C163.201447,746.079041 158.785934,743.913696 154.575577,741.456726 
	C154.575577,741.456726 154.576294,741.336182 154.587250,741.049133 
	C154.302460,740.541260 154.006714,740.320496 153.710968,740.099670 
M482.268097,533.194397 
	C500.188477,539.011292 518.070007,539.285217 535.494141,531.700806 
	C554.292114,523.518433 564.812622,508.745697 567.710205,488.550842 
	C568.682434,481.775238 565.275024,477.523590 559.341003,477.786530 
	C554.149353,478.016602 552.411682,481.444641 551.794922,486.082336 
	C549.893738,500.378448 542.712280,511.102570 529.325073,516.837952 
	C513.784546,523.495850 498.035278,522.754761 482.725952,515.994995 
	C469.249969,510.044678 460.498749,500.049286 457.814911,485.081207 
	C456.914307,480.058594 452.003143,478.101044 447.252869,480.034637 
	C443.114349,481.719208 441.533295,485.012909 442.640747,490.335754 
	C447.188263,512.192810 461.446655,525.234802 482.268097,533.194397 
M659.810547,348.577606 
	C652.136719,344.046570 645.437805,344.613220 639.555298,351.032684 
	C636.805908,354.033081 634.461548,357.695740 632.922791,361.462311 
	C627.292358,375.244873 626.795898,389.663544 628.765320,404.229279 
	C629.936584,412.891846 632.105347,421.287903 637.603699,428.352631 
	C645.143311,438.040192 656.982361,438.239532 664.234375,428.368896 
	C667.314270,424.176880 669.642578,419.106873 671.064209,414.082642 
	C675.609314,398.018829 675.349426,381.805725 670.738281,365.748169 
	C668.874451,359.257599 665.894409,353.324860 659.810547,348.577606 
M332.681610,412.812927 
	C334.240723,421.943085 336.572815,430.788086 343.226929,437.713989 
	C350.256531,445.030609 359.749268,445.187073 366.463287,437.599060 
	C369.579376,434.077240 372.179504,429.685883 373.702057,425.239655 
	C379.826385,407.355011 379.884888,389.210266 373.777832,371.321350 
	C372.159271,366.580261 369.381989,361.860504 365.998474,358.176331 
	C359.534027,351.137451 349.757751,351.140106 343.572754,358.392212 
	C339.801605,362.814026 336.867737,368.374969 335.002869,373.911041 
	C330.844574,386.255524 330.702484,399.094116 332.681610,412.812927 
M826.194519,750.674622 
	C840.228943,732.878052 844.919556,711.706787 847.984070,689.985413 
	C848.627991,685.421326 846.561218,681.637756 842.526245,679.614990 
	C838.867554,677.780762 835.578186,679.507080 832.460693,681.910706 
	C820.987061,690.756958 813.856445,703.011597 808.650146,715.829651 
	C803.454712,728.620911 800.726196,742.455200 797.426697,755.957031 
	C795.928894,762.086121 801.791077,766.444885 807.848083,764.173889 
	C814.974976,761.501709 821.211548,757.509521 826.194519,750.674622 
M390.864227,386.570282 
	C393.600281,392.093903 395.994537,397.824921 399.180420,403.075592 
	C401.735168,407.286133 404.941711,411.222229 408.427856,414.711853 
	C411.796326,418.083710 416.028900,417.949890 418.569794,414.773773 
	C422.708618,409.600128 425.569611,403.891479 424.210419,396.886261 
	C421.245819,381.606903 414.916382,367.701965 406.071777,355.072601 
	C403.564575,351.492523 399.202148,348.714111 395.106293,346.855927 
	C388.258972,343.749634 382.847778,348.433380 383.484558,355.926880 
	C384.364197,366.278503 386.167816,376.371277 390.864227,386.570282 
M711.807434,413.623383 
	C714.126953,416.980255 715.830994,421.688599 721.030457,420.582184 
	C726.270203,419.467133 726.311768,414.578674 727.263306,410.301117 
	C729.249451,401.372559 726.850098,392.978241 723.994507,384.886169 
	C720.470215,374.898895 716.425110,364.995911 711.506104,355.633911 
	C708.003113,348.966797 703.395020,348.403320 696.683044,351.621857 
	C691.472168,354.120605 689.346313,357.686676 690.198730,363.734833 
	C690.728027,367.490570 691.485474,371.385254 693.060913,374.791962 
	C698.989807,387.612671 705.296265,400.258759 711.807434,413.623383 
z"/>
<path fill="#66DF8E" opacity="1.000000" stroke="none" 
	d="
M154.631866,741.791382 
	C158.785934,743.913696 163.201447,746.079041 167.173615,748.874512 
	C194.893631,768.382263 224.180954,785.040710 255.394196,798.326355 
	C297.701477,816.333984 341.831909,828.223389 386.885590,836.533875 
	C410.175476,840.829834 433.836548,843.204346 457.384003,845.989990 
	C486.006287,849.376038 514.799805,849.624207 543.553406,848.821472 
	C560.111511,848.359253 576.622986,846.322144 593.163208,845.098877 
	C623.856079,842.828979 654.085266,837.506042 684.141541,831.158081 
	C723.088013,822.932495 761.486572,812.787231 798.308716,797.348083 
	C799.665527,796.779236 801.146057,796.505310 802.979248,796.129150 
	C790.838867,809.043030 776.088379,818.984009 760.560242,827.792114 
	C731.738647,844.140442 700.379272,852.268555 667.800964,857.159363 
	C625.630371,863.490295 583.397095,869.052795 540.829468,871.653503 
	C485.334198,875.043945 429.955963,874.261169 374.954010,865.101929 
	C322.984619,856.447571 273.547119,840.491211 227.629242,814.140320 
	C196.898911,796.505127 171.624786,773.604370 154.631866,741.791382 
z"/>
<path fill="#FEA4E4" opacity="1.000000" stroke="none" 
	d="
M874.286926,604.671265 
	C876.444153,611.634766 873.817810,615.750916 868.411438,619.659729 
	C840.934570,639.525574 804.566162,641.268250 775.622803,623.672913 
	C747.101929,606.334290 731.366333,572.812805 736.535828,540.405945 
	C741.966064,506.364105 766.629944,479.498138 799.506592,471.559113 
	C803.287842,470.646027 806.104004,471.297241 809.150269,473.659058 
	C827.389282,487.799866 841.544006,505.305206 851.821533,525.850769 
	C864.170532,550.537415 871.130066,576.853149 874.286926,604.671265 
M786.028381,520.256348 
	C788.480774,526.424194 790.206116,533.030579 793.588379,538.637512 
	C797.027222,544.338135 801.303650,550.188782 806.644592,553.930908 
	C814.394714,559.361206 831.532166,549.105957 833.856873,538.442017 
	C834.339539,536.228394 834.532654,533.857239 834.333984,531.605042 
	C833.225952,519.045471 827.504700,509.052673 817.717529,501.060303 
	C810.853577,495.455170 800.322510,494.214447 792.279358,498.868805 
	C785.391724,502.854492 783.363586,509.373291 786.028381,520.256348 
M833.614990,560.950806 
	C832.684570,562.105408 831.499329,563.137085 830.871826,564.437805 
	C829.057007,568.199951 829.729553,571.957764 833.030518,574.246216 
	C835.507568,575.963562 839.129822,577.650696 841.786926,577.110779 
	C845.881470,576.278687 849.051697,568.034424 847.594360,564.596375 
	C845.336243,559.269165 840.400635,557.745789 833.614990,560.950806 
z"/>
<path fill="#FDA4E4" opacity="1.000000" stroke="none" 
	d="
M245.852768,537.328430 
	C251.310913,570.150391 242.358734,597.776855 216.799072,618.641785 
	C191.900711,638.966919 163.658401,642.269226 133.481995,631.673218 
	C128.238937,629.832214 126.440742,627.228882 126.822990,621.552856 
	C130.179321,571.714722 146.221619,527.230530 181.225540,490.590088 
	C183.983337,487.703369 186.913666,484.968842 189.896088,482.312073 
	C195.996719,476.877594 196.097214,476.802887 203.106476,480.623535 
	C225.757629,492.970215 240.005844,511.737823 245.852768,537.328430 
M226.249680,521.265747 
	C222.840424,510.258331 217.297836,500.798645 206.640442,495.345245 
	C196.300720,490.054413 186.190292,496.574768 185.927032,508.165771 
	C185.618011,521.770874 202.831650,541.926025 213.434677,545.515015 
	C217.429138,546.867065 221.367157,546.472412 224.819519,542.863098 
	C231.196533,536.195984 229.216919,529.212219 226.249680,521.265747 
M224.590393,572.986572 
	C228.042923,575.178894 231.778625,575.933960 234.080948,571.968994 
	C236.201691,568.316772 235.536575,564.270142 232.454254,561.008423 
	C229.664948,558.056702 226.492691,558.481628 223.459213,560.415405 
	C219.712570,562.803833 220.006165,567.478577 224.590393,572.986572 
z"/>
<path fill="#80F079" opacity="1.000000" stroke="none" 
	d="
M470.032562,220.983185 
	C457.765930,211.680222 449.474548,199.743546 443.234589,186.252502 
	C434.115601,166.536972 429.914917,145.561371 427.124329,123.878746 
	C428.036285,123.878746 428.705627,123.692657 429.205017,123.905434 
	C454.631439,134.738388 475.436890,150.893738 488.404053,175.876617 
	C494.958679,188.504913 497.447968,201.947327 495.118927,216.071869 
	C494.251892,221.329956 495.489685,225.188919 500.497803,227.627914 
	C505.233917,229.934448 508.624115,228.928146 511.518433,224.459290 
	C514.764893,219.446671 517.878174,214.268921 521.729980,209.742081 
	C533.113037,196.364182 548.360107,191.544052 565.360413,191.138794 
	C570.945923,191.005646 576.537231,191.117828 583.181946,191.117828 
	C581.949280,194.597183 581.411377,196.807220 580.424927,198.794693 
	C568.541565,222.737686 548.474487,236.234161 522.904114,240.654221 
	C504.191559,243.888855 507.594543,246.928986 507.776428,259.480530 
	C508.454742,306.282776 509.343292,353.081940 510.145142,399.882416 
	C510.184601,402.185822 510.150208,404.490509 510.150208,407.200745 
	C503.994232,407.200745 498.265320,407.200745 492.024200,407.200745 
	C492.416260,403.884583 492.747711,400.789673 493.152252,397.704346 
	C496.997223,368.382416 497.339447,338.916473 496.681030,309.419464 
	C496.182983,287.105652 495.358063,264.798492 494.972992,242.483276 
	C494.875641,236.842133 493.283020,233.233627 487.748291,230.853592 
	C481.677216,228.242920 476.109955,224.460709 470.032562,220.983185 
M458.673645,154.763336 
	C454.310638,150.515915 450.772736,150.095367 446.948059,153.369568 
	C443.376953,156.426636 443.268646,159.967392 446.318787,164.929535 
	C451.451569,173.279938 456.447632,181.714249 461.541382,190.088837 
	C466.117188,197.611969 470.562347,205.224686 475.425385,212.559052 
	C478.142731,216.657349 482.484711,217.212265 486.339508,214.726700 
	C490.095367,212.304932 491.242065,208.277130 488.869659,204.336411 
	C479.015594,187.968170 469.041870,171.671936 458.673645,154.763336 
M546.166931,221.662689 
	C551.644470,217.893890 557.173279,214.196884 562.583679,210.334106 
	C567.097229,207.111649 567.996216,203.239899 565.423279,199.226135 
	C562.711975,194.996475 558.409668,194.042831 553.786194,197.135818 
	C544.116028,203.604889 534.537048,210.215103 525.038879,216.934494 
	C520.864197,219.887848 520.240356,223.803284 522.810913,227.771317 
	C525.462158,231.863968 529.535217,232.766449 534.048706,229.944214 
	C537.991150,227.479004 541.742249,224.707916 546.166931,221.662689 
z"/>
<path fill="#66DE8E" opacity="1.000000" stroke="none" 
	d="
M475.513885,937.081177 
	C469.617676,934.158630 463.645935,931.372925 457.891235,928.194214 
	C456.786194,927.583801 456.024231,925.448303 455.969543,923.984009 
	C455.555115,912.885803 455.356415,901.779480 455.070770,889.855469 
	C479.706940,889.855469 505.042206,889.855469 531.215210,889.855469 
	C530.708252,895.839966 530.169189,902.208008 529.629089,908.575928 
	C529.502808,910.065186 528.870605,911.732117 529.324951,913.014893 
	C532.686646,922.505432 527.426880,927.693176 519.381226,932.020386 
	C516.618774,932.229065 514.653625,932.358154 512.700928,932.591858 
	C500.303711,934.075500 487.909271,935.582092 475.513885,937.081177 
z"/>
<path fill="#2B9BC6" opacity="1.000000" stroke="none" 
	d="
M666.206787,900.276184 
	C663.767212,901.900879 661.434448,903.235168 658.880615,904.762817 
	C652.433044,907.472473 646.242004,910.081360 639.971375,912.482361 
	C631.522888,915.717163 623.013123,918.792053 614.115234,921.909424 
	C623.405579,907.556396 633.053406,893.190186 642.915100,878.972290 
	C643.768860,877.741333 645.971558,877.153137 647.655090,876.834778 
	C670.526550,872.509888 693.416931,868.285461 716.712402,864.053711 
	C713.196106,867.513733 709.570679,871.397522 705.287598,874.316223 
	C692.434021,883.074951 679.323669,891.456787 666.206787,900.276184 
z"/>
<path fill="#F7F3C9" opacity="1.000000" stroke="none" 
	d="
M610.443604,881.644043 
	C614.304321,881.174805 617.723450,880.766052 622.457703,880.200134 
	C614.290894,892.069153 606.822449,902.923218 599.078247,914.178101 
	C588.876343,907.999878 578.765991,902.309204 569.138306,895.893921 
	C562.773438,891.652710 556.948730,890.134094 550.487427,895.142334 
	C549.755981,895.709167 548.737793,895.906189 547.804260,896.294861 
	C546.119202,888.665710 546.901917,887.708801 553.905273,887.068115 
	C572.611206,885.356812 591.304016,883.502258 610.443604,881.644043 
z"/>
<path fill="#2B9BC6" opacity="1.000000" stroke="none" 
	d="
M438.973480,940.621155 
	C424.101715,939.640076 409.304535,938.209839 394.032806,936.665771 
	C403.573181,928.132568 413.576141,919.698975 423.614471,911.307739 
	C425.336456,909.868286 437.398529,908.945557 438.822723,910.381042 
	C439.688843,911.254028 440.038483,913.005676 440.003662,914.346619 
	C439.780182,922.957581 439.386108,931.564087 438.973480,940.621155 
z"/>
<path fill="#F6F2C8" opacity="1.000000" stroke="none" 
	d="
M428.056396,893.599243 
	C422.622223,892.764587 418.640839,894.420105 414.873688,897.739868 
	C407.918213,903.869385 400.640503,909.633240 392.862885,916.074646 
	C390.514282,910.262024 388.337097,904.957520 386.226471,899.626648 
	C384.101196,894.258789 382.041992,888.864746 379.612213,882.601624 
	C383.480743,883.069763 386.516968,883.489868 389.564575,883.796997 
	C404.105865,885.262634 418.640839,886.806396 433.200287,888.065247 
	C436.735077,888.370911 438.537384,889.358398 437.688354,893.622009 
	C434.679504,893.622009 431.605499,893.622009 428.056396,893.599243 
z"/>
<path fill="#D04448" opacity="1.000000" stroke="none" 
	d="
M486.507751,955.758545 
	C502.158630,956.767212 516.336792,953.505920 529.288818,945.178223 
	C529.778931,945.411926 530.268982,945.645630 530.759094,945.879333 
	C530.120544,948.091675 530.187805,951.088318 528.734924,952.395874 
	C513.020691,966.538818 484.905975,973.993164 465.269806,962.538147 
	C462.844482,961.123352 460.665863,959.289734 458.345154,957.690491 
	C454.395447,954.968750 454.377441,951.168030 455.122162,947.802490 
	C465.482269,950.447510 475.768188,953.073669 486.507751,955.758545 
z"/>
<path fill="#2D98C5" opacity="1.000000" stroke="none" 
	d="
M589.918823,927.753601 
	C584.128418,929.696838 578.230469,931.698181 572.173706,932.898926 
	C563.898926,934.539429 555.503296,935.570679 546.802002,936.976196 
	C546.332520,930.941956 546.046326,924.789246 546.234131,918.651001 
	C546.279663,917.161865 547.564148,915.299133 548.830811,914.328552 
	C555.115906,909.512451 561.117493,908.109497 568.258789,913.905640 
	C574.785522,919.203003 582.531738,922.997864 589.918823,927.753601 
z"/>
<path fill="#7CEB7B" opacity="1.000000" stroke="none" 
	d="
M475.832977,937.331604 
	C487.909271,935.582092 500.303711,934.075500 512.700928,932.591858 
	C514.653625,932.358154 516.618774,932.229065 519.060425,932.060547 
	C505.979736,940.996277 491.408142,941.982910 475.832977,937.331604 
z"/>
<path fill="#66DF8E" opacity="1.000000" stroke="none" 
	d="
M153.787567,740.369324 
	C154.006714,740.320496 154.302460,740.541260 154.647385,741.044922 
	C154.419098,741.098145 154.141647,740.868530 153.787567,740.369324 
z"/>
<path fill="#312D8A" opacity="1.000000" stroke="none" 
	d="
M481.895874,533.069580 
	C461.446655,525.234802 447.188263,512.192810 442.640747,490.335754 
	C441.533295,485.012909 443.114349,481.719208 447.252869,480.034637 
	C452.003143,478.101044 456.914307,480.058594 457.814911,485.081207 
	C460.498749,500.049286 469.249969,510.044678 482.725952,515.994995 
	C498.035278,522.754761 513.784546,523.495850 529.325073,516.837952 
	C542.712280,511.102570 549.893738,500.378448 551.794922,486.082336 
	C552.411682,481.444641 554.149353,478.016602 559.341003,477.786530 
	C565.275024,477.523590 568.682434,481.775238 567.710205,488.550842 
	C564.812622,508.745697 554.292114,523.518433 535.494141,531.700806 
	C518.070007,539.285217 500.188477,539.011292 481.895874,533.069580 
z"/>
<path fill="#322C8C" opacity="1.000000" stroke="none" 
	d="
M660.100586,348.799622 
	C665.894409,353.324860 668.874451,359.257599 670.738281,365.748169 
	C675.349426,381.805725 675.609314,398.018829 671.064209,414.082642 
	C669.642578,419.106873 667.314270,424.176880 664.234375,428.368896 
	C656.982361,438.239532 645.143311,438.040192 637.603699,428.352631 
	C632.105347,421.287903 629.936584,412.891846 628.765320,404.229279 
	C626.795898,389.663544 627.292358,375.244873 632.922791,361.462311 
	C634.461548,357.695740 636.805908,354.033081 639.555298,351.032684 
	C645.437805,344.613220 652.136719,344.046570 660.100586,348.799622 
M641.597717,413.739746 
	C647.131592,420.133514 653.134949,420.512329 657.828857,414.398590 
	C661.816772,409.204376 663.497803,402.984406 662.568298,396.584625 
	C662.266296,394.505310 658.726929,390.956909 657.509277,391.277252 
	C651.429443,392.876617 644.492920,394.262970 640.065613,398.204315 
	C636.019775,401.806061 638.946777,408.176270 641.597717,413.739746 
M639.824585,378.726379 
	C644.130859,381.628387 648.039612,381.484650 650.868225,378.320343 
	C653.570251,375.297638 653.723877,370.203857 651.104248,366.821716 
	C648.670044,363.678925 645.541504,362.745514 641.883728,364.492432 
	C638.046570,366.325073 636.371338,371.029663 637.882690,375.580261 
	C638.187073,376.496674 638.827209,377.301605 639.824585,378.726379 
z"/>
<path fill="#322D8C" opacity="1.000000" stroke="none" 
	d="
M332.602386,412.381348 
	C330.702484,399.094116 330.844574,386.255524 335.002869,373.911041 
	C336.867737,368.374969 339.801605,362.814026 343.572754,358.392212 
	C349.757751,351.140106 359.534027,351.137451 365.998474,358.176331 
	C369.381989,361.860504 372.159271,366.580261 373.777832,371.321350 
	C379.884888,389.210266 379.826385,407.355011 373.702057,425.239655 
	C372.179504,429.685883 369.579376,434.077240 366.463287,437.599060 
	C359.749268,445.187073 350.256531,445.030609 343.226929,437.713989 
	C336.572815,430.788086 334.240723,421.943085 332.602386,412.381348 
M364.982697,417.269623 
	C365.666656,413.372681 366.661865,409.493958 366.890930,405.570435 
	C366.991364,403.850342 365.979187,401.552368 364.691650,400.358887 
	C360.574432,396.542603 343.904572,402.517090 343.038483,408.141510 
	C342.207489,413.537872 343.120148,418.771790 346.778778,423.139282 
	C350.231201,427.260651 355.471222,428.004211 359.589355,424.564392 
	C361.672058,422.824768 363.025391,420.211914 364.982697,417.269623 
M359.406891,384.366028 
	C358.749817,378.323578 356.401733,374.962219 352.159180,374.489899 
	C348.115051,374.039673 345.017426,375.787384 343.239075,379.448425 
	C341.401947,383.230255 341.626709,387.262756 344.625061,390.051514 
	C346.509949,391.804626 349.792358,393.017822 352.352234,392.865570 
	C356.602875,392.612793 358.943146,389.452515 359.406891,384.366028 
z"/>
<path fill="#B1FFC8" opacity="1.000000" stroke="none" 
	d="
M825.995972,750.969482 
	C821.211548,757.509521 814.974976,761.501709 807.848083,764.173889 
	C801.791077,766.444885 795.928894,762.086121 797.426697,755.957031 
	C800.726196,742.455200 803.454712,728.620911 808.650146,715.829651 
	C813.856445,703.011597 820.987061,690.756958 832.460693,681.910706 
	C835.578186,679.507080 838.867554,677.780762 842.526245,679.614990 
	C846.561218,681.637756 848.627991,685.421326 847.984070,689.985413 
	C844.919556,711.706787 840.228943,732.878052 825.995972,750.969482 
z"/>
<path fill="#B1FFC7" opacity="1.000000" stroke="none" 
	d="
M390.704987,386.224548 
	C386.167816,376.371277 384.364197,366.278503 383.484558,355.926880 
	C382.847778,348.433380 388.258972,343.749634 395.106293,346.855927 
	C399.202148,348.714111 403.564575,351.492523 406.071777,355.072601 
	C414.916382,367.701965 421.245819,381.606903 424.210419,396.886261 
	C425.569611,403.891479 422.708618,409.600128 418.569794,414.773773 
	C416.028900,417.949890 411.796326,418.083710 408.427856,414.711853 
	C404.941711,411.222229 401.735168,407.286133 399.180420,403.075592 
	C395.994537,397.824921 393.600281,392.093903 390.704987,386.224548 
z"/>
<path fill="#B1FFC7" opacity="1.000000" stroke="none" 
	d="
M711.634399,413.296814 
	C705.296265,400.258759 698.989807,387.612671 693.060913,374.791962 
	C691.485474,371.385254 690.728027,367.490570 690.198730,363.734833 
	C689.346313,357.686676 691.472168,354.120605 696.683044,351.621857 
	C703.395020,348.403320 708.003113,348.966797 711.506104,355.633911 
	C716.425110,364.995911 720.470215,374.898895 723.994507,384.886169 
	C726.850098,392.978241 729.249451,401.372559 727.263306,410.301117 
	C726.311768,414.578674 726.270203,419.467133 721.030457,420.582184 
	C715.830994,421.688599 714.126953,416.980255 711.634399,413.296814 
z"/>
<path fill="#FFC0FB" opacity="1.000000" stroke="none" 
	d="
M785.956177,519.840454 
	C783.363586,509.373291 785.391724,502.854492 792.279358,498.868805 
	C800.322510,494.214447 810.853577,495.455170 817.717529,501.060303 
	C827.504700,509.052673 833.225952,519.045471 834.333984,531.605042 
	C834.532654,533.857239 834.339539,536.228394 833.856873,538.442017 
	C831.532166,549.105957 814.394714,559.361206 806.644592,553.930908 
	C801.303650,550.188782 797.027222,544.338135 793.588379,538.637512 
	C790.206116,533.030579 788.480774,526.424194 785.956177,519.840454 
z"/>
<path fill="#FFBFFA" opacity="1.000000" stroke="none" 
	d="
M833.924561,560.711792 
	C840.400635,557.745789 845.336243,559.269165 847.594360,564.596375 
	C849.051697,568.034424 845.881470,576.278687 841.786926,577.110779 
	C839.129822,577.650696 835.507568,575.963562 833.030518,574.246216 
	C829.729553,571.957764 829.057007,568.199951 830.871826,564.437805 
	C831.499329,563.137085 832.684570,562.105408 833.924561,560.711792 
z"/>
<path fill="#FFC0FB" opacity="1.000000" stroke="none" 
	d="
M226.400650,521.631592 
	C229.216919,529.212219 231.196533,536.195984 224.819519,542.863098 
	C221.367157,546.472412 217.429138,546.867065 213.434677,545.515015 
	C202.831650,541.926025 185.618011,521.770874 185.927032,508.165771 
	C186.190292,496.574768 196.300720,490.054413 206.640442,495.345245 
	C217.297836,500.798645 222.840424,510.258331 226.400650,521.631592 
z"/>
<path fill="#FFBFFA" opacity="1.000000" stroke="none" 
	d="
M224.308624,572.733154 
	C220.006165,567.478577 219.712570,562.803833 223.459213,560.415405 
	C226.492691,558.481628 229.664948,558.056702 232.454254,561.008423 
	C235.536575,564.270142 236.201691,568.316772 234.080948,571.968994 
	C231.778625,575.933960 228.042923,575.178894 224.308624,572.733154 
z"/>
<path fill="#322D8A" opacity="1.000000" stroke="none" 
	d="
M458.892853,155.056305 
	C469.041870,171.671936 479.015594,187.968170 488.869659,204.336411 
	C491.242065,208.277130 490.095367,212.304932 486.339508,214.726700 
	C482.484711,217.212265 478.142731,216.657349 475.425385,212.559052 
	C470.562347,205.224686 466.117188,197.611969 461.541382,190.088837 
	C456.447632,181.714249 451.451569,173.279938 446.318787,164.929535 
	C443.268646,159.967392 443.376953,156.426636 446.948059,153.369568 
	C450.772736,150.095367 454.310638,150.515915 458.892853,155.056305 
z"/>
<path fill="#322F8A" opacity="1.000000" stroke="none" 
	d="
M545.872437,221.867325 
	C541.742249,224.707916 537.991150,227.479004 534.048706,229.944214 
	C529.535217,232.766449 525.462158,231.863968 522.810913,227.771317 
	C520.240356,223.803284 520.864197,219.887848 525.038879,216.934494 
	C534.537048,210.215103 544.116028,203.604889 553.786194,197.135818 
	C558.409668,194.042831 562.711975,194.996475 565.423279,199.226135 
	C567.996216,203.239899 567.097229,207.111649 562.583679,210.334106 
	C557.173279,214.196884 551.644470,217.893890 545.872437,221.867325 
z"/>
<path fill="#73A4F9" opacity="1.000000" stroke="none" 
	d="
M641.402344,413.416779 
	C638.946777,408.176270 636.019775,401.806061 640.065613,398.204315 
	C644.492920,394.262970 651.429443,392.876617 657.509277,391.277252 
	C658.726929,390.956909 662.266296,394.505310 662.568298,396.584625 
	C663.497803,402.984406 661.816772,409.204376 657.828857,414.398590 
	C653.134949,420.512329 647.131592,420.133514 641.402344,413.416779 
z"/>
<path fill="#F5F5FA" opacity="1.000000" stroke="none" 
	d="
M639.568604,378.442139 
	C638.827209,377.301605 638.187073,376.496674 637.882690,375.580261 
	C636.371338,371.029663 638.046570,366.325073 641.883728,364.492432 
	C645.541504,362.745514 648.670044,363.678925 651.104248,366.821716 
	C653.723877,370.203857 653.570251,375.297638 650.868225,378.320343 
	C648.039612,381.484650 644.130859,381.628387 639.568604,378.442139 
z"/>
<path fill="#73A4F9" opacity="1.000000" stroke="none" 
	d="
M364.845581,417.631744 
	C363.025391,420.211914 361.672058,422.824768 359.589355,424.564392 
	C355.471222,428.004211 350.231201,427.260651 346.778778,423.139282 
	C343.120148,418.771790 342.207489,413.537872 343.038483,408.141510 
	C343.904572,402.517090 360.574432,396.542603 364.691650,400.358887 
	C365.979187,401.552368 366.991364,403.850342 366.890930,405.570435 
	C366.661865,409.493958 365.666656,413.372681 364.845581,417.631744 
z"/>
<path fill="#F5F5FA" opacity="1.000000" stroke="none" 
	d="
M359.384888,384.742126 
	C358.943146,389.452515 356.602875,392.612793 352.352234,392.865570 
	C349.792358,393.017822 346.509949,391.804626 344.625061,390.051514 
	C341.626709,387.262756 341.401947,383.230255 343.239075,379.448425 
	C345.017426,375.787384 348.115051,374.039673 352.159180,374.489899 
	C356.401733,374.962219 358.749817,378.323578 359.384888,384.742126 
z"/>
</svg>